<svg xmlns="http://www.w3.org/2000/svg" viewBox="0 0 24 24"><path d="M19.193,11.824,15.655,9.753v-4.1a3.655,3.655,0,0,0-7.31,0v4.1L4.807,11.824a3.659,3.659,0,0,0-1.307,5h0a3.656,3.656,0,0,0,5,1.307l.659-.386L8.545,20H5a1,1,0,1,0,0,2H19a1,1,0,1,0,0-2H15.455l-.615-2.254a4.2,4.2,0,0,0,3.43.768,3.63,3.63,0,0,0,2.23-1.689h0A3.659,3.659,0,0,0,19.193,11.824ZM7.49,16.405a1.65,1.65,0,0,1-2.263-.591h0a1.655,1.655,0,0,1,.592-2.262l2.534-1.484a3.753,3.753,0,0,0,1.679,2.851ZM12,13.5a1.654,1.654,0,1,1,1.644-1.757A1.655,1.655,0,0,1,12,13.5Zm1.655-4.9A4.1,4.1,0,0,0,12,8.193a3.934,3.934,0,0,0-1.655.406V5.654a1.655,1.655,0,0,1,3.31,0Zm5.119,7.213h0a1.651,1.651,0,0,1-2.263.591l-2.541-1.487a3.747,3.747,0,0,0,1.679-2.851l2.534,1.484A1.655,1.655,0,0,1,18.774,15.813ZM17.752,8.285a5.936,5.936,0,0,0-.827-1.713,1,1,0,0,1,1.641-1.144,7.938,7.938,0,0,1,1.1,2.287,1,1,0,1,1-1.917.57ZM6.826,5.18a1,1,0,0,1,.249,1.392,5.936,5.936,0,0,0-.827,1.713,1,1,0,1,1-1.917-.57,7.938,7.938,0,0,1,1.1-2.287A1,1,0,0,1,6.826,5.18Z"/></svg>