<svg xmlns="http://www.w3.org/2000/svg" viewBox="0 0 24 24"><path d="M8,14a4,4,0,0,1,8,0ZM18.707,8.293a1,1,0,0,0-1.414,0L16.586,9A1,1,0,1,0,18,10.414l.707-.707A1,1,0,0,0,18.707,8.293ZM21,12H20a1,1,0,0,0,0,2h1a1,1,0,0,0,0-2ZM3,12a1,1,0,0,0,0,2H4a1,1,0,0,0,0-2Zm3-1.586A1,1,0,1,0,7.414,9l-.707-.707A1,1,0,0,0,5.293,9.707ZM19,17a1,1,0,0,0-1-1H6a1,1,0,0,0,0,2H18A1,1,0,0,0,19,17Zm-4,5a1,1,0,0,0,0-2H9a1,1,0,0,0,0,2ZM12,8a1,1,0,0,0,1-1V5.414l.293.293a1,1,0,0,0,1.414-1.414l-2-2a1,1,0,0,0-1.414,0l-2,2a1,1,0,0,0,1.414,1.414L11,5.414V7A1,1,0,0,0,12,8Z"/></svg>